<svg width="480" height="410" viewBox="0 0 480 410" fill="none" xmlns="http://www.w3.org/2000/svg">
<path d="M480 410V0L0 410H480Z" fill="#CBD0FC"/>
<path fill-rule="evenodd" clip-rule="evenodd" d="M354.963 285.966C354.964 285.967 354.965 285.969 354.966 285.97C354.967 285.969 354.968 285.969 354.97 285.968C354.969 285.966 354.968 285.965 354.967 285.964C354.966 285.964 354.965 285.965 354.963 285.966ZM374.622 210.334C359.265 184.182 325.657 175.277 299.347 190.467C273.037 205.657 263.945 239.218 278.918 265.593C252.766 280.95 243.862 314.558 259.051 340.867C274.242 367.177 307.802 376.27 334.177 361.297C334.246 361.417 334.314 361.537 334.383 361.657C349.642 388.086 383.437 397.141 409.866 381.882C436.295 366.624 445.35 332.829 430.092 306.4C430.022 306.279 429.951 306.158 429.881 306.038C430.001 305.969 430.121 305.9 430.241 305.831C456.67 290.572 465.726 256.778 450.467 230.348C435.208 203.919 401.413 194.864 374.984 210.123C374.863 210.193 374.742 210.263 374.622 210.334Z" fill="white"/>
</svg>
