<svg width="108"
     height="108"
     viewBox="0 0 108 108"
     fill="none"
     xmlns="http://www.w3.org/2000/svg">
<g filter="url(#filter0_d_670_547)">
<circle cx="54"
        cy="46"
        r="30"
        fill="#222533"
        fill-opacity="0.3" />
</g>
<g filter="url(#filter1_d_670_547)">
<rect x="34"
      y="49"
      width="40"
      height="10"
      rx="5"
      fill="white" />
</g>
<path d="M39.4268 42H43.7949C45.9004 42 47.2061 40.9131 47.2061 39.1768V39.1631C47.2061 37.8643 46.2148 36.8867 44.8408 36.7842V36.7432C45.9209 36.5996 46.7344 35.6836 46.7344 34.6104V34.5967C46.7344 33.0859 45.5723 32.1357 43.7197 32.1357H39.4268V42ZM43.1865 33.667C44.1436 33.667 44.7041 34.1182 44.7041 34.8975V34.9111C44.7041 35.7314 44.0752 36.2168 42.9746 36.2168H41.4912V33.667H43.1865ZM43.2207 37.6182C44.4375 37.6182 45.1006 38.1104 45.1006 39.0264V39.04C45.1006 39.9697 44.4512 40.4619 43.2686 40.4619H41.4912V37.6182H43.2207ZM50.3916 42.1162C51.3555 42.1162 52.1348 41.6582 52.5518 40.9062H52.5928V42H54.5889V36.9756C54.5889 35.499 53.3652 34.5215 51.4717 34.5215C49.5371 34.5215 48.375 35.4922 48.2656 36.8457L48.2588 36.9277H50.084L50.0977 36.8662C50.1934 36.3945 50.6445 36.0459 51.3896 36.0459C52.1689 36.0459 52.5928 36.4492 52.5928 37.0986V37.5498L50.7812 37.6592C48.9629 37.7754 47.9307 38.5547 47.9307 39.8877V39.9014C47.9307 41.1934 48.9219 42.1162 50.3916 42.1162ZM49.9062 39.7988V39.7852C49.9062 39.2656 50.3096 38.9375 51.082 38.8896L52.5928 38.7939V39.3203C52.5928 40.0859 51.9365 40.6602 51.041 40.6602C50.3506 40.6602 49.9062 40.3389 49.9062 39.7988ZM59.2305 42.1504C61.1855 42.1504 62.4502 40.9336 62.5459 39.334V39.293H60.6865L60.6797 39.3545C60.543 40.0928 60.0439 40.585 59.2441 40.585C58.2598 40.585 57.6445 39.7715 57.6445 38.3359V38.3291C57.6445 36.9277 58.2598 36.0869 59.2373 36.0869C60.0645 36.0869 60.5498 36.6201 60.6729 37.3174L60.6865 37.3789H62.5391V37.3311C62.4639 35.7451 61.1992 34.5215 59.21 34.5215C57.0156 34.5215 55.6143 35.9775 55.6143 38.3223V38.3291C55.6143 40.6943 56.9951 42.1504 59.2305 42.1504ZM63.5781 42H65.5742V39.5732L66.0869 39.0059L68.1855 42H70.4893L67.584 37.8232L70.3525 34.6719H68.0898L65.6152 37.6045H65.5742V32.1357H63.5781V42Z"
      fill="white" />
<defs>
<filter id="filter0_d_670_547"
        x="0"
        y="0"
        width="108"
        height="108"
        filterUnits="userSpaceOnUse"
        color-interpolation-filters="sRGB">
<feFlood flood-opacity="0"
         result="BackgroundImageFix" />
<feColorMatrix in="SourceAlpha"
               type="matrix"
               values="0 0 0 0 0 0 0 0 0 0 0 0 0 0 0 0 0 0 127 0"
               result="hardAlpha" />
<feOffset dy="8" />
<feGaussianBlur stdDeviation="12" />
<feComposite in2="hardAlpha"
             operator="out" />
<feColorMatrix type="matrix"
               values="0 0 0 0 0 0 0 0 0 0 0 0 0 0 0 0 0 0 0.05 0" />
<feBlend mode="normal"
         in2="BackgroundImageFix"
         result="effect1_dropShadow_670_547" />
<feBlend mode="normal"
         in="SourceGraphic"
         in2="effect1_dropShadow_670_547"
         result="shape" />
</filter>
<filter id="filter1_d_670_547"
        x="10"
        y="33"
        width="88"
        height="58"
        filterUnits="userSpaceOnUse"
        color-interpolation-filters="sRGB">
<feFlood flood-opacity="0"
         result="BackgroundImageFix" />
<feColorMatrix in="SourceAlpha"
               type="matrix"
               values="0 0 0 0 0 0 0 0 0 0 0 0 0 0 0 0 0 0 127 0"
               result="hardAlpha" />
<feOffset dy="8" />
<feGaussianBlur stdDeviation="12" />
<feComposite in2="hardAlpha"
             operator="out" />
<feColorMatrix type="matrix"
               values="0 0 0 0 0.282353 0 0 0 0 0.27451 0 0 0 0 0.27451 0 0 0 0.15 0" />
<feBlend mode="normal"
         in2="BackgroundImageFix"
         result="effect1_dropShadow_670_547" />
<feBlend mode="normal"
         in="SourceGraphic"
         in2="effect1_dropShadow_670_547"
         result="shape" />
</filter>
</defs>
</svg>