<svg width="108"
     height="108"
     viewBox="0 0 108 108"
     fill="none"
     xmlns="http://www.w3.org/2000/svg">
<g filter="url(#filter0_d_474_1653)">
<circle cx="54"
        cy="46"
        r="30"
        fill="#222533"
        fill-opacity="0.3" />
</g>
<g filter="url(#filter1_d_474_1653)">
<rect x="34"
      y="49"
      width="40"
      height="10"
      rx="5"
      fill="white" />
</g>
<path d="M45.0078 42H41.8145V33.5449H45.0195C45.5 33.5449 45.9219 33.6328 46.2852 33.8086C46.6523 33.9844 46.9375 34.2305 47.1406 34.5469C47.3438 34.8633 47.4453 35.2324 47.4453 35.6543C47.4453 35.873 47.4082 36.0859 47.334 36.293C47.2598 36.4961 47.1562 36.6836 47.0234 36.8555C46.8906 37.0234 46.7344 37.1641 46.5547 37.2773C46.3789 37.3906 46.1895 37.4648 45.9863 37.5V37.5469C46.3691 37.5938 46.7012 37.7109 46.9824 37.8984C47.2676 38.0859 47.4863 38.3281 47.6387 38.625C47.7949 38.918 47.873 39.252 47.873 39.627C47.873 40.123 47.7578 40.5488 47.5273 40.9043C47.3008 41.2559 46.9727 41.5273 46.543 41.7188C46.1172 41.9062 45.6055 42 45.0078 42ZM42.8691 34.4766V37.1895H44.4512C45.0762 37.1895 45.5527 37.0684 45.8809 36.8262C46.2129 36.584 46.3789 36.2344 46.3789 35.7773C46.3789 35.3594 46.2402 35.0391 45.9629 34.8164C45.6855 34.5898 45.291 34.4766 44.7793 34.4766H42.8691ZM42.8691 41.0684H44.8496C45.4863 41.0684 45.9688 40.9414 46.2969 40.6875C46.625 40.4336 46.7891 40.0625 46.7891 39.5742C46.7891 38.5898 46.1094 38.0977 44.75 38.0977H42.8691V41.0684ZM50.9199 41.2383C51.2402 41.2383 51.5273 41.1699 51.7812 41.0332C52.0391 40.8965 52.2422 40.7109 52.3906 40.4766C52.543 40.2422 52.6191 39.9785 52.6191 39.6855V39.1875L50.9902 39.2871C50.5801 39.3145 50.2617 39.4141 50.0352 39.5859C49.8125 39.7578 49.7012 39.9883 49.7012 40.2773C49.7012 40.5664 49.8125 40.7988 50.0352 40.9746C50.2578 41.1504 50.5527 41.2383 50.9199 41.2383ZM50.6914 42.1055C50.2891 42.1055 49.9355 42.0293 49.6309 41.877C49.3262 41.7246 49.0879 41.5117 48.916 41.2383C48.748 40.9648 48.6641 40.6445 48.6641 40.2773C48.6641 39.7539 48.8555 39.3359 49.2383 39.0234C49.625 38.7109 50.1699 38.5352 50.873 38.4961L52.6191 38.3965V37.8867C52.6191 37.5156 52.502 37.2246 52.2676 37.0137C52.0332 36.8027 51.7051 36.6973 51.2832 36.6973C50.8926 36.6973 50.5762 36.7852 50.334 36.9609C50.0918 37.1328 49.9395 37.3672 49.877 37.6641H48.8926C48.916 37.3125 49.0273 36.9961 49.2266 36.7148C49.4258 36.4336 49.7012 36.2109 50.0527 36.0469C50.4082 35.8828 50.8262 35.8008 51.3066 35.8008C51.7832 35.8008 52.1953 35.8828 52.543 36.0469C52.8945 36.207 53.1641 36.4375 53.3516 36.7383C53.543 37.0352 53.6387 37.3848 53.6387 37.7871V42H52.6719V40.9512H52.6484C52.5273 41.1816 52.3652 41.3848 52.1621 41.5605C51.959 41.7324 51.7305 41.8672 51.4766 41.9648C51.2266 42.0586 50.9648 42.1055 50.6914 42.1055ZM59.9961 37.9043H59C58.9492 37.6816 58.8574 37.4805 58.7246 37.3008C58.5957 37.1172 58.4238 36.9707 58.209 36.8613C57.998 36.752 57.7422 36.6973 57.4414 36.6973C57.0898 36.6973 56.7812 36.7891 56.5156 36.9727C56.25 37.1562 56.043 37.418 55.8945 37.7578C55.7461 38.0938 55.6719 38.4922 55.6719 38.9531C55.6719 39.4258 55.7461 39.8301 55.8945 40.166C56.0469 40.502 56.2559 40.7598 56.5215 40.9395C56.791 41.1191 57.1016 41.209 57.4531 41.209C57.8711 41.209 58.2129 41.1055 58.4785 40.8984C58.7441 40.6914 58.9199 40.4043 59.0059 40.0371H60.0078C59.957 40.4395 59.8164 40.7969 59.5859 41.1094C59.3555 41.4219 59.0566 41.666 58.6895 41.8418C58.3223 42.0176 57.9082 42.1055 57.4473 42.1055C56.8848 42.1055 56.3926 41.9805 55.9707 41.7305C55.5488 41.4766 55.2207 41.1152 54.9863 40.6465C54.752 40.1738 54.6348 39.6094 54.6348 38.9531C54.6348 38.4727 54.7012 38.0391 54.834 37.6523C54.9668 37.2656 55.1562 36.9336 55.4023 36.6562C55.6523 36.3789 55.9473 36.168 56.2871 36.0234C56.6309 35.875 57.0137 35.8008 57.4355 35.8008C57.8184 35.8008 58.1602 35.8594 58.4609 35.9766C58.7617 36.0898 59.0195 36.2461 59.2344 36.4453C59.4531 36.6406 59.627 36.8652 59.7559 37.1191C59.8848 37.3691 59.9648 37.6309 59.9961 37.9043ZM62.0176 38.6133L64.7129 35.9062H65.9492L63.3066 38.5371L66.0312 42H64.8477L62.5859 39.1641L62.0176 39.7031V42H60.998V33.5449H62.0176V38.6133Z"
      fill="white" />
<defs>
<filter id="filter0_d_474_1653"
        x="0"
        y="0"
        width="108"
        height="108"
        filterUnits="userSpaceOnUse"
        color-interpolation-filters="sRGB">
<feFlood flood-opacity="0"
         result="BackgroundImageFix" />
<feColorMatrix in="SourceAlpha"
               type="matrix"
               values="0 0 0 0 0 0 0 0 0 0 0 0 0 0 0 0 0 0 127 0"
               result="hardAlpha" />
<feOffset dy="8" />
<feGaussianBlur stdDeviation="12" />
<feComposite in2="hardAlpha"
             operator="out" />
<feColorMatrix type="matrix"
               values="0 0 0 0 0 0 0 0 0 0 0 0 0 0 0 0 0 0 0.05 0" />
<feBlend mode="normal"
         in2="BackgroundImageFix"
         result="effect1_dropShadow_474_1653" />
<feBlend mode="normal"
         in="SourceGraphic"
         in2="effect1_dropShadow_474_1653"
         result="shape" />
</filter>
<filter id="filter1_d_474_1653"
        x="10"
        y="33"
        width="88"
        height="58"
        filterUnits="userSpaceOnUse"
        color-interpolation-filters="sRGB">
<feFlood flood-opacity="0"
         result="BackgroundImageFix" />
<feColorMatrix in="SourceAlpha"
               type="matrix"
               values="0 0 0 0 0 0 0 0 0 0 0 0 0 0 0 0 0 0 127 0"
               result="hardAlpha" />
<feOffset dy="8" />
<feGaussianBlur stdDeviation="12" />
<feComposite in2="hardAlpha"
             operator="out" />
<feColorMatrix type="matrix"
               values="0 0 0 0 0.282353 0 0 0 0 0.27451 0 0 0 0 0.27451 0 0 0 0.15 0" />
<feBlend mode="normal"
         in2="BackgroundImageFix"
         result="effect1_dropShadow_474_1653" />
<feBlend mode="normal"
         in="SourceGraphic"
         in2="effect1_dropShadow_474_1653"
         result="shape" />
</filter>
</defs>
</svg>