<?xml version="1.0" encoding="utf-8"?>
<!-- Generator: Adobe Illustrator 26.0.2, SVG Export Plug-In . SVG Version: 6.00 Build 0)  -->
<svg version="1.1" id="圖層_1" xmlns="http://www.w3.org/2000/svg" xmlns:xlink="http://www.w3.org/1999/xlink" x="0px" y="0px"
	 viewBox="0 0 108 108" style="enable-background:new 0 0 108 108;" xml:space="preserve">
<style type="text/css">
	.st0{fill:#222533;fill-opacity:0.3;}
	.st1{fill:#FFFFFF;}
</style>
<g>
	<circle class="st0" cx="54" cy="54" r="53"/>
</g>
<g>
	<path class="st1" d="M27.5,59.3h53c4.9,0,8.8,4,8.8,8.8l0,0c0,4.9-4,8.8-8.8,8.8h-53c-4.9,0-8.8-4-8.8-8.8l0,0
		C18.7,63.3,22.6,59.3,27.5,59.3z"/>
</g>
<path class="st1" d="M28.3,46.9H36c3.7,0,6-1.9,6-5v0c0-2.3-1.8-4-4.2-4.2v-0.1c1.9-0.3,3.3-1.9,3.3-3.8v0c0-2.7-2.1-4.3-5.3-4.3
	h-7.6V46.9z M34.9,32.2c1.7,0,2.7,0.8,2.7,2.2v0c0,1.4-1.1,2.3-3.1,2.3h-2.6v-4.5H34.9z M35,39.2c2.1,0,3.3,0.9,3.3,2.5v0
	c0,1.6-1.1,2.5-3.2,2.5h-3.1v-5H35z M47.6,47.1c1.7,0,3.1-0.8,3.8-2.1h0.1v1.9H55v-8.9c0-2.6-2.2-4.3-5.5-4.3
	c-3.4,0-5.5,1.7-5.7,4.1l0,0.1h3.2l0-0.1c0.2-0.8,1-1.4,2.3-1.4c1.4,0,2.1,0.7,2.1,1.9v0.8l-3.2,0.2c-3.2,0.2-5,1.6-5,3.9v0
	C43.3,45.5,45,47.1,47.6,47.1z M46.8,43L46.8,43c0-0.9,0.7-1.5,2.1-1.6l2.7-0.2v0.9c0,1.4-1.2,2.4-2.7,2.4
	C47.6,44.6,46.8,44,46.8,43z M63.2,47.2c3.5,0,5.7-2.1,5.9-5v-0.1h-3.3l0,0.1c-0.2,1.3-1.1,2.2-2.5,2.2c-1.7,0-2.8-1.4-2.8-4v0
	c0-2.5,1.1-4,2.8-4c1.5,0,2.3,0.9,2.5,2.2l0,0.1h3.3v-0.1c-0.1-2.8-2.4-5-5.9-5c-3.9,0-6.4,2.6-6.4,6.7v0
	C56.9,44.6,59.3,47.2,63.2,47.2z M70.9,46.9h3.5v-4.3l0.9-1l3.7,5.3h4.1L78,39.6l4.9-5.6h-4l-4.4,5.2h-0.1v-9.7h-3.5V46.9z"/>
</svg>
